<?xml version="1.0" encoding="UTF-8"?>
<svg width="587px" height="144px" viewBox="0 0 587 144" version="1.1" xmlns="http://www.w3.org/2000/svg" xmlns:xlink="http://www.w3.org/1999/xlink">
    <title>Xanasana</title>
    <g id="Manual" stroke="none" stroke-width="1" fill="none" fill-rule="evenodd">
        <g id="42" transform="translate(-1249, -823)" fill="#000000" fill-rule="nonzero">
            <g id="Xanasana" transform="translate(1250.723, 824.3499)">
                <path d="M207.873004,6.15807095 C216.457004,3.60607095 218.545004,-0.221929045 215.993004,0.0100709547 C175.509004,8.71007095 126.325004,38.406071 85.1450038,69.494071 C88.3930038,51.862071 92.3370038,34.810071 93.9610038,24.254071 C94.7730038,18.918071 93.3810038,14.626071 89.2050038,11.958071 C76.6770038,4.18607095 7.19300379,41.770071 0.581003786,61.606071 C0.581003786,61.838071 -1.85499621,66.710071 3.24900379,70.886071 C8.23700379,74.946071 16.7050038,68.566071 11.8330038,67.986071 C5.45300379,67.290071 3.59700379,65.318071 7.42500379,59.866071 C19.9530038,42.350071 77.8370038,10.218071 87.1170038,14.510071 C90.9450038,16.250071 80.6210038,46.526071 75.2850038,77.034071 C49.4170038,97.218071 27.4930038,117.286071 14.0370038,132.018071 C11.2530038,133.874071 9.74500379,144.198071 14.7330038,140.718071 C25.5210038,130.046071 46.6330038,109.282071 73.6610038,86.778071 C68.5570038,124.246071 74.1250038,157.422071 126.905004,132.598071 C131.313004,130.510071 132.937004,122.970071 128.645004,125.058071 C127.833004,125.638071 101.501004,142.110071 88.2770038,136.658071 C76.9090038,131.902071 78.8810038,105.802071 83.4050038,78.774071 C119.133004,50.122071 163.561004,20.310071 207.873004,6.15807095 Z" id="Path" stroke="#000000" stroke-width="2"></path>
                <path d="M219.589004,92.810071 C220.169004,91.998071 219.241004,90.258071 217.733004,91.766071 C201.261004,106.614071 177.597004,124.130071 173.653004,122.390071 C169.593004,119.026071 191.285004,93.970071 195.461004,90.490071 C198.245004,88.170071 193.257004,85.038071 188.153004,88.170071 C188.269004,85.154071 184.905004,81.674071 180.497004,81.210071 C155.789004,79.006071 128.297004,120.186071 143.261004,125.290071 C151.381004,127.958071 163.561004,115.198071 169.825004,109.166071 C165.649004,116.706071 164.141004,125.406071 172.609004,125.986071 C181.077004,126.450071 208.453004,104.294071 219.589004,92.810071 Z M172.029004,102.322071 C161.821004,112.414071 149.177004,124.826071 145.697004,121.694071 C140.941004,117.518071 166.345004,84.806071 182.585004,86.198071 C185.137004,86.314071 185.137004,88.982071 183.513004,91.650071 C180.265004,94.318071 176.321004,98.262071 172.029004,102.322071 Z" id="Shape"></path>
                <path d="M285.013004,92.926071 C270.977004,105.918071 242.325004,128.538071 238.613004,122.274071 C235.713004,117.518071 258.913004,93.158071 260.769004,91.070071 C263.089004,88.518071 261.929004,82.834071 258.565004,82.834071 C244.529004,82.950071 219.009004,104.990071 210.309004,116.010071 C214.369004,104.410071 231.769004,88.402071 234.901004,86.430071 C235.713004,85.850071 236.873004,84.342071 234.437004,83.066071 C232.465004,82.138071 227.129004,82.718071 224.113004,85.502071 C215.413004,92.230071 204.625004,106.382071 201.377004,116.938071 C198.941004,125.406071 204.857004,128.770071 208.569004,123.782071 C225.041004,101.742071 247.777004,88.286071 254.157004,87.590071 C249.169004,91.302071 224.577004,116.474071 233.277004,125.522071 C239.077004,131.786071 256.013004,121.810071 286.869004,93.970071 C287.797004,93.042071 287.797004,92.346071 287.449004,91.998071 C287.101004,91.534071 286.637004,91.534071 285.013004,92.926071 Z" id="Path"></path>
                <path d="M348.117004,92.810071 C348.697004,91.998071 347.769004,90.258071 346.261004,91.766071 C329.789004,106.614071 306.125004,124.130071 302.181004,122.390071 C298.121004,119.026071 319.813004,93.970071 323.989004,90.490071 C326.773004,88.170071 321.785004,85.038071 316.681004,88.170071 C316.797004,85.154071 313.433004,81.674071 309.025004,81.210071 C284.317004,79.006071 256.825004,120.186071 271.789004,125.290071 C279.909004,127.958071 292.089004,115.198071 298.353004,109.166071 C294.177004,116.706071 292.669004,125.406071 301.137004,125.986071 C309.605004,126.450071 336.981004,104.294071 348.117004,92.810071 Z M300.557004,102.322071 C290.349004,112.414071 277.705004,124.826071 274.225004,121.694071 C269.469004,117.518071 294.873004,84.806071 311.113004,86.198071 C313.665004,86.314071 313.665004,88.982071 312.041004,91.650071 C308.793004,94.318071 304.849004,98.262071 300.557004,102.322071 Z" id="Shape"></path>
                <path d="M395.213004,92.578071 C395.445004,92.346071 394.749004,91.534071 394.517004,91.302071 C394.401004,91.186071 393.821004,91.418071 393.821004,91.418071 C374.449004,113.806071 360.181004,119.606071 349.741004,118.910071 C351.017004,111.486071 347.073004,99.886071 353.221004,92.926071 C358.673004,86.546071 371.201004,82.022071 374.565004,84.458071 C377.929004,86.894071 373.521004,90.606071 370.389004,93.738071 C369.461004,94.666071 370.157004,96.638071 371.665004,95.594071 C377.117004,92.114071 380.365004,87.242071 377.813004,83.530071 C373.637004,77.382071 359.717004,79.122071 348.929004,87.474071 C338.141004,95.826071 343.709004,109.630071 342.665004,117.402071 C331.413004,113.226071 325.613004,102.438071 322.249004,105.802071 C319.465004,109.978071 325.613004,126.566071 339.997004,126.218071 C345.101004,126.102071 347.653004,124.362071 348.929004,121.578071 C360.529004,121.694071 376.189004,115.082071 395.213004,92.578071 Z M337.561004,122.390071 C330.137004,122.042071 325.961004,112.994071 325.613004,109.862071 C327.005004,112.182071 332.457004,118.330071 341.505004,120.650071 C341.389004,120.882071 341.157004,120.998071 341.041004,121.230071 C340.229004,122.158071 338.837004,122.390071 337.561004,122.390071 Z" id="Shape"></path>
                <path d="M455.997004,92.810071 C456.577004,91.998071 455.649004,90.258071 454.141004,91.766071 C437.669004,106.614071 414.005004,124.130071 410.061004,122.390071 C406.001004,119.026071 427.693004,93.970071 431.869004,90.490071 C434.653004,88.170071 429.665004,85.038071 424.561004,88.170071 C424.677004,85.154071 421.313004,81.674071 416.905004,81.210071 C392.197004,79.006071 364.705004,120.186071 379.669004,125.290071 C387.789004,127.958071 399.969004,115.198071 406.233004,109.166071 C402.057004,116.706071 400.549004,125.406071 409.017004,125.986071 C417.485004,126.450071 444.861004,104.294071 455.997004,92.810071 Z M408.437004,102.322071 C398.229004,112.414071 385.585004,124.826071 382.105004,121.694071 C377.349004,117.518071 402.753004,84.806071 418.993004,86.198071 C421.545004,86.314071 421.545004,88.982071 419.921004,91.650071 C416.673004,94.318071 412.729004,98.262071 408.437004,102.322071 Z" id="Shape"></path>
                <path d="M521.421004,92.926071 C507.385004,105.918071 478.733004,128.538071 475.021004,122.274071 C472.121004,117.518071 495.321004,93.158071 497.177004,91.070071 C499.497004,88.518071 498.337004,82.834071 494.973004,82.834071 C480.937004,82.950071 455.417004,104.990071 446.717004,116.010071 C450.777004,104.410071 468.177004,88.402071 471.309004,86.430071 C472.121004,85.850071 473.281004,84.342071 470.845004,83.066071 C468.873004,82.138071 463.537004,82.718071 460.521004,85.502071 C451.821004,92.230071 441.033004,106.382071 437.785004,116.938071 C435.349004,125.406071 441.265004,128.770071 444.977004,123.782071 C461.449004,101.742071 484.185004,88.286071 490.565004,87.590071 C485.577004,91.302071 460.985004,116.474071 469.685004,125.522071 C475.485004,131.786071 492.421004,121.810071 523.277004,93.970071 C524.205004,93.042071 524.205004,92.346071 523.857004,91.998071 C523.509004,91.534071 523.045004,91.534071 521.421004,92.926071 Z" id="Path"></path>
                <path d="M584.525004,92.810071 C585.105004,91.998071 584.177004,90.258071 582.669004,91.766071 C566.197004,106.614071 542.533004,124.130071 538.589004,122.390071 C534.529004,119.026071 556.221004,93.970071 560.397004,90.490071 C563.181004,88.170071 558.193004,85.038071 553.089004,88.170071 C553.205004,85.154071 549.841004,81.674071 545.433004,81.210071 C520.725004,79.006071 493.233004,120.186071 508.197004,125.290071 C516.317004,127.958071 528.497004,115.198071 534.761004,109.166071 C530.585004,116.706071 529.077004,125.406071 537.545004,125.986071 C546.013004,126.450071 573.389004,104.294071 584.525004,92.810071 Z M536.965004,102.322071 C526.757004,112.414071 514.113004,124.826071 510.633004,121.694071 C505.877004,117.518071 531.281004,84.806071 547.521004,86.198071 C550.073004,86.314071 550.073004,88.982071 548.449004,91.650071 C545.201004,94.318071 541.257004,98.262071 536.965004,102.322071 Z" id="Shape"></path>
            </g>
        </g>
    </g>
</svg>